<?xml version="1.0" standalone="no"?>
<!DOCTYPE svg PUBLIC "-//W3C//DTD SVG 20010904//EN"
 "http://www.w3.org/TR/2001/REC-SVG-20010904/DTD/svg10.dtd">
<svg version="1.0" xmlns="http://www.w3.org/2000/svg"
 width="947.000000pt" height="1280.000000pt" viewBox="0 0 947.000000 1280.000000"
 preserveAspectRatio="xMidYMid meet">
<metadata>
Created by potrace 1.15, written by Peter Selinger 2001-2017
</metadata>
<g transform="translate(0.000000,1280.000000) scale(0.100000,-0.100000)"
fill="#000000" stroke="none">
<path d="M4365 12789 c-608 -65 -1046 -187 -1364 -378 -118 -71 -211 -143
-396 -306 -88 -77 -244 -211 -346 -297 -102 -86 -201 -176 -218 -200 -18 -24
-75 -130 -127 -237 -52 -107 -123 -237 -157 -290 -123 -187 -294 -376 -547
-603 -85 -77 -160 -147 -167 -156 -8 -12 -9 -39 -3 -97 17 -153 23 -446 11
-553 -16 -147 -31 -215 -127 -560 -90 -322 -144 -476 -194 -556 -34 -54 -34
-74 0 -27 60 85 117 247 230 659 96 346 101 377 107 619 3 125 1 264 -6 342
-7 73 -8 137 -4 144 4 7 8 17 8 23 0 7 72 77 160 156 365 330 529 538 692 875
47 98 101 202 121 231 23 36 98 107 231 219 108 92 273 233 366 315 215 188
316 260 485 347 155 80 332 143 558 200 279 70 697 129 827 117 39 -4 160 -16
270 -27 137 -13 338 -22 640 -29 471 -9 572 -18 712 -65 164 -55 310 -148 618
-393 110 -87 313 -245 450 -351 424 -327 472 -366 524 -436 58 -76 111 -184
157 -313 20 -59 43 -114 49 -122 6 -8 26 -86 44 -174 61 -305 125 -464 276
-685 167 -247 209 -353 250 -636 32 -224 55 -328 120 -551 105 -355 114 -408
117 -674 l2 -195 -47 -231 c-91 -450 -96 -584 -33 -860 69 -306 142 -530 267
-820 79 -185 114 -293 106 -326 -3 -10 -1 -21 4 -24 5 -3 9 -98 9 -212 0 -224
-15 -363 -50 -453 -23 -62 -23 -59 -11 -59 12 0 48 122 62 210 7 41 13 168 13
282 1 115 2 208 4 208 9 0 82 -91 102 -128 44 -82 40 -133 -39 -533 -39 -196
-71 -380 -71 -408 0 -28 7 -68 16 -89 8 -20 11 -32 6 -27 -5 6 -153 217 -327
470 -175 253 -335 483 -356 511 -71 93 -135 113 -519 163 -120 15 -192 32
-415 100 -404 122 -595 195 -663 254 -25 20 -42 27 -65 25 -52 -5 -66 -47 -68
-204 -1 -127 0 -132 30 -191 16 -33 28 -63 24 -66 -3 -3 4 -18 15 -34 10 -15
52 -102 91 -193 40 -91 76 -174 81 -185 21 -48 8 18 -19 103 -30 89 -69 174
-113 242 -22 34 -21 33 31 -13 99 -88 263 -170 636 -319 245 -98 332 -143 426
-222 83 -69 186 -199 243 -308 l39 -73 -89 86 c-185 179 -364 284 -587 343
-51 14 -195 44 -322 67 -234 42 -364 77 -481 130 -54 24 -65 32 -58 47 4 9 16
49 26 87 16 59 19 95 16 232 -4 144 -9 186 -22 172 -2 -2 1 -40 6 -84 13 -114
4 -266 -22 -347 -11 -38 -23 -68 -26 -68 -15 0 -413 216 -411 223 1 4 40 32
87 61 57 37 87 51 91 43 3 -7 12 -48 19 -92 7 -44 17 -84 21 -89 11 -13 12
-16 -6 84 -8 47 -15 94 -15 105 0 13 27 41 76 79 42 33 94 84 117 113 23 29
47 53 54 53 16 0 16 0 -2 101 -28 159 -93 313 -247 585 -99 174 -178 328 -178
347 0 45 -239 577 -421 937 -79 156 -145 301 -154 335 -13 51 -15 146 -13 590
3 519 -8 772 -33 830 -7 14 -8 4 -4 -30 21 -212 26 -386 24 -845 -3 -508 -3
-516 19 -577 12 -34 86 -189 165 -345 79 -155 170 -341 202 -413 88 -197 195
-455 195 -471 0 -20 87 -191 187 -368 151 -264 220 -427 245 -577 l11 -68 -51
-63 c-57 -73 -116 -124 -222 -195 -108 -73 -415 -261 -485 -298 -33 -18 -116
-64 -185 -102 -213 -120 -518 -268 -728 -354 -91 -37 -93 -38 -141 -24 -172
52 -800 368 -850 429 -8 9 -19 16 -25 16 -12 0 -142 88 -212 143 -23 17 -68
52 -102 75 -75 54 -224 199 -280 272 -23 30 -83 102 -132 160 -110 128 -198
253 -255 366 -24 47 -46 80 -50 74 -17 -28 -221 117 -289 206 -35 45 -36 50
-35 128 1 45 4 107 8 139 l6 58 95 -133 c52 -72 99 -139 104 -147 13 -20 -77
45 -141 103 -29 26 -53 43 -53 38 0 -14 96 -97 170 -147 33 -22 101 -85 151
-140 51 -55 92 -98 93 -96 1 2 11 -1 24 -8 34 -18 26 1 -13 29 -71 50 -193
278 -262 489 -24 73 -42 135 -41 137 2 1 48 -65 102 -147 55 -82 104 -149 109
-149 5 0 -1 15 -12 33 -11 19 -32 64 -46 101 -25 67 -97 327 -92 333 2 1 29
-33 61 -77 32 -44 62 -80 67 -80 14 0 11 12 -10 34 -30 31 -143 259 -180 361
-38 104 -71 250 -71 315 0 44 1 43 41 -55 41 -103 189 -447 196 -454 15 -19 6
23 -27 125 -21 67 -55 190 -76 275 -41 165 -41 165 -49 157 -3 -3 12 -74 34
-159 55 -212 54 -207 43 -189 -16 24 -140 324 -153 372 -7 24 -16 48 -20 53
-13 18 -97 289 -123 395 -23 96 -47 230 -59 337 l-5 42 75 25 75 25 -5 -26
c-5 -29 30 -317 69 -553 13 -85 25 -175 26 -200 1 -39 8 -53 60 -115 80 -94
145 -194 219 -337 94 -182 194 -271 374 -335 76 -27 89 -28 245 -27 151 0 173
3 255 28 49 15 112 39 140 52 49 25 88 54 82 61 -2 1 -39 -10 -83 -26 -127
-46 -225 -64 -359 -64 -340 1 -586 175 -704 500 -39 106 -47 181 -24 211 l18
22 59 -90 c33 -49 66 -90 73 -90 18 0 17 2 -18 61 -16 28 -43 77 -59 108 l-28
57 49 59 c27 33 53 61 58 63 4 1 16 -9 25 -23 23 -35 32 -25 12 13 -14 28 -14
31 7 50 25 22 98 61 139 72 26 8 26 7 -17 -51 -133 -181 -158 -377 -70 -556
58 -118 166 -201 310 -238 77 -19 226 -19 293 0 98 30 193 127 233 240 30 86
37 240 15 300 -10 25 -22 45 -27 45 -5 0 -3 -13 6 -30 41 -78 26 -245 -31
-360 -84 -167 -246 -232 -466 -186 -228 49 -368 218 -368 445 0 43 7 102 16
132 23 78 80 182 128 233 l41 44 97 7 c204 15 401 -26 571 -118 97 -53 165
-110 253 -213 58 -69 69 -78 72 -60 2 12 -2 35 -8 51 -16 42 -25 1060 -11
1280 9 157 66 583 78 595 3 3 3 -155 -1 -350 -10 -482 6 -669 75 -893 26 -86
159 -416 232 -577 13 -30 37 -93 52 -140 67 -203 150 -374 264 -542 92 -137
100 -134 45 18 -119 330 -190 703 -201 1066 -4 115 -10 185 -16 181 -10 -6 -3
-212 14 -393 14 -154 54 -387 94 -541 29 -113 49 -179 111 -365 9 -27 -48 56
-111 161 -174 294 -287 686 -339 1175 -31 292 -38 457 -44 1040 -4 410 -8 578
-15 540 -11 -67 -2 -901 13 -1155 21 -370 54 -656 99 -865 12 -51 19 -95 17
-97 -1 -2 -40 84 -85 191 -178 424 -183 455 -190 1116 -6 485 -5 511 16 655
12 83 22 181 23 218 0 139 58 569 86 641 3 9 2 16 -4 16 -23 0 -85 -407 -97
-640 -5 -95 -48 -406 -117 -851 -7 -47 -13 -323 -17 -755 l-6 -681 -44 64
c-48 70 -84 185 -115 373 -19 117 -39 324 -34 372 l3 37 74 -35 c41 -19 76
-32 79 -29 3 3 -34 23 -81 45 -103 49 -98 36 -122 285 -49 517 -36 985 50
1858 3 31 2 57 -3 57 -5 0 -12 -46 -16 -102 -3 -57 -17 -217 -31 -356 -37
-386 -48 -634 -42 -942 6 -248 24 -526 46 -682 9 -64 3 -70 -47 -44 -44 23
-230 85 -302 102 l-67 15 -6 172 c-18 462 4 940 63 1401 11 86 20 164 19 174
-1 45 -17 -33 -33 -163 -13 -102 -31 -184 -67 -302 -132 -439 -169 -668 -169
-1059 l0 -191 -97 -6 c-64 -5 -99 -3 -103 4 -8 11 -44 267 -60 414 -18 167
-31 529 -26 690 5 125 3 152 -5 125 -16 -49 -4 -612 16 -805 9 -82 25 -212 36
-288 11 -75 18 -141 15 -146 -3 -4 -25 -11 -48 -14 -24 -4 -58 -9 -77 -13
l-34 -7 6 194 c7 192 25 384 51 533 7 42 10 76 5 76 -4 0 -12 -30 -18 -67 -31
-183 -42 -307 -48 -513 l-6 -226 -115 -37 c-64 -20 -117 -36 -118 -34 -13 12
-38 226 -43 362 -6 153 -7 163 -14 100 -8 -79 5 -271 28 -389 8 -44 14 -81 12
-82 -1 -1 -60 -28 -132 -59 -71 -31 -170 -79 -220 -105 -49 -26 -112 -56 -138
-65 -37 -14 -45 -20 -33 -27 10 -6 33 1 72 22 90 48 87 51 107 -112 47 -375
157 -785 307 -1142 21 -50 50 -145 65 -210 15 -66 38 -151 51 -189 13 -39 22
-72 20 -74 -5 -6 -142 209 -207 326 -65 117 -143 290 -161 357 -7 24 -15 44
-19 44 -3 0 -9 -39 -12 -87 -9 -143 -60 -269 -191 -468 -107 -163 -185 -254
-310 -364 -136 -120 -140 -125 -297 -347 -256 -363 -325 -479 -372 -629 -40
-128 -47 -232 -47 -662 1 -459 -10 -630 -66 -1008 -29 -193 -89 -494 -109
-543 -10 -22 -21 -32 -35 -32 -12 0 -19 4 -16 9 3 4 -13 17 -37 27 -78 35
-184 155 -320 359 -69 105 -149 224 -178 265 -77 111 -146 262 -179 392 -33
134 -48 240 -100 733 -41 382 -69 541 -131 751 -37 125 -49 258 -29 320 20 64
209 504 246 574 45 86 127 205 141 205 6 0 34 29 61 65 107 140 496 583 602
685 l42 40 -18 -45 c-31 -82 -161 -347 -220 -447 -31 -54 -101 -163 -154 -243
-124 -184 -124 -185 -160 -333 -33 -141 -203 -637 -222 -648 -7 -4 -10 -10 -7
-13 2 -3 10 -1 18 3 19 12 188 498 222 640 17 68 36 139 44 157 8 19 72 120
142 226 134 202 266 446 349 648 54 132 137 381 129 388 -7 8 -7 10 -64 -165
-29 -90 -57 -161 -61 -158 -13 8 -251 -248 -470 -505 -150 -178 -143 -170
-134 -145 10 30 -3 14 -102 -120 -49 -66 -107 -153 -131 -193 -56 -100 -260
-576 -274 -642 -15 -70 -6 -136 41 -310 63 -235 97 -441 135 -815 52 -508 71
-621 134 -794 37 -103 78 -174 178 -318 43 -61 113 -165 155 -230 106 -163
171 -239 273 -317 129 -100 136 -93 194 194 40 197 76 435 103 675 19 174 22
260 23 670 2 500 5 536 55 685 26 77 109 240 123 240 17 0 158 -132 235 -220
199 -227 355 -521 428 -807 44 -173 55 -292 65 -668 6 -198 11 -383 13 -412 7
-105 84 -193 293 -334 257 -173 293 -232 318 -518 8 -91 21 -190 29 -219 8
-30 12 -61 9 -70 -4 -10 -3 -14 2 -10 4 4 30 -37 56 -92 27 -55 91 -173 144
-261 182 -302 208 -381 245 -734 21 -213 36 -289 85 -455 46 -155 64 -246 71
-354 3 -50 7 -109 9 -131 2 -22 -1 -173 -6 -335 -7 -190 -7 -322 -1 -370 8
-64 10 -39 12 170 1 135 5 258 9 274 l6 30 39 -45 c41 -46 96 -155 96 -188 0
-11 5 -23 12 -27 18 -11 2 52 -31 121 -15 33 -48 83 -73 110 l-45 50 -6 190
c-6 217 -19 298 -81 516 -47 164 -69 286 -86 484 -20 217 -59 365 -137 518
-14 29 -66 119 -116 202 -50 82 -110 192 -135 244 l-45 94 36 67 c63 116 72
166 72 415 -1 402 -59 647 -269 1139 -275 640 -394 1164 -421 1841 -6 147 7
512 21 595 5 24 3 32 -4 25 -15 -14 -32 -274 -32 -492 0 -479 68 -936 211
-1411 52 -175 111 -332 218 -582 109 -255 132 -314 175 -465 86 -302 116 -692
71 -918 -13 -61 -72 -193 -82 -183 -14 13 -34 129 -43 248 -12 154 -28 224
-65 298 -26 52 -117 148 -167 178 l-29 17 6 220 c8 232 -9 782 -26 832 -6 20
-7 8 -4 -42 8 -115 18 -963 12 -979 -12 -30 -238 143 -300 228 -34 48 -47 181
-57 571 -6 249 -13 389 -24 455 -78 457 -314 873 -669 1178 l-38 32 42 63 c51
75 220 317 222 317 1 0 2 -91 2 -202 0 -232 12 -418 27 -418 6 0 8 11 4 28 -4
15 -9 160 -12 322 l-5 295 59 82 c39 53 104 121 191 198 142 126 262 274 365
447 28 48 53 88 56 88 3 -1 46 -62 95 -138 l90 -137 -3 -138 c-2 -100 -6 -136
-14 -131 -8 5 -9 1 -4 -12 4 -10 7 -129 6 -264 -1 -511 43 -861 157 -1240 40
-133 113 -324 243 -635 66 -158 120 -288 120 -290 0 -2 -10 -6 -22 -8 -22 -4
-22 -4 -2 -6 31 -2 36 -11 93 -163 199 -537 244 -974 130 -1270 -39 -100 -115
-216 -196 -296 -35 -36 -62 -66 -60 -68 7 -8 105 88 147 144 25 34 47 60 50
59 239 -122 548 -262 794 -362 200 -81 509 -195 528 -195 28 0 -14 19 -131 59
-287 99 -652 252 -972 408 l-216 105 24 43 24 43 87 -23 c48 -13 127 -38 175
-55 48 -18 90 -30 93 -27 8 7 -141 62 -247 91 -154 42 -139 51 94 51 163 0
190 -2 257 -23 101 -32 270 -115 408 -201 61 -38 112 -66 112 -61 0 14 -185
125 -325 195 -176 88 -252 106 -432 107 -77 0 -156 -3 -174 -7 -29 -6 -31 -5
-24 11 116 276 64 753 -142 1297 -25 65 -43 120 -41 123 2 2 42 -1 89 -6 116
-13 453 -13 499 1 32 10 50 7 146 -24 241 -78 479 -132 744 -167 330 -45 879
-35 1131 20 127 27 334 116 373 158 17 20 18 32 7 234 -6 117 -11 359 -11 538
l1 325 37 -70 c47 -88 144 -192 236 -252 39 -25 75 -49 79 -53 8 -7 -330 -742
-418 -905 -29 -55 -88 -158 -130 -230 -180 -306 -259 -529 -280 -795 l-6 -76
-280 -78 c-154 -43 -308 -80 -342 -83 l-62 -5 65 38 c146 84 264 127 400 148
14 2 2 4 -26 5 -73 2 -156 -27 -331 -114 -84 -41 -160 -75 -168 -75 -9 0 -13
-4 -10 -10 10 -16 102 -11 200 9 50 11 193 49 320 85 168 47 232 62 237 53 4
-7 8 -29 8 -49 0 -55 27 -171 56 -246 46 -116 105 -209 254 -402 54 -69 118
-157 143 -195 l47 -70 -34 -95 c-45 -128 -95 -225 -228 -442 -142 -233 -221
-396 -254 -524 -22 -87 -25 -114 -21 -224 4 -150 15 -186 142 -470 78 -176
105 -228 105 -207 0 4 -33 81 -74 171 -141 311 -175 432 -163 584 13 168 97
371 263 637 115 184 199 345 239 458 l33 92 15 -36 c40 -97 45 -180 22 -422
-8 -87 -14 -162 -13 -165 1 -4 -10 -57 -25 -118 -45 -184 -58 -301 -62 -564
l-3 -245 8 200 c11 253 25 396 55 539 31 151 63 243 146 421 108 229 155 352
219 567 74 246 94 349 87 448 -7 101 -31 165 -120 317 -42 70 -87 162 -101
203 -63 190 -53 401 30 588 21 48 27 54 46 48 13 -4 94 -10 181 -13 86 -3 157
-9 157 -12 0 -3 -7 -28 -16 -56 -24 -80 -54 -233 -54 -280 0 -42 6 -51 121
-182 184 -209 261 -328 311 -478 30 -92 33 -272 5 -352 -28 -79 -90 -169 -186
-268 -140 -144 -191 -204 -254 -300 l-59 -90 7 90 c14 199 61 350 188 615 106
221 137 311 143 415 l4 80 -15 -90 c-20 -124 -35 -164 -135 -375 -144 -305
-187 -444 -196 -635 l-6 -110 -73 -150 c-119 -241 -175 -436 -175 -609 0 -78
24 -281 50 -411 10 -55 24 -134 30 -175 22 -155 54 -330 60 -330 4 0 3 24 -2
53 -5 28 -20 124 -33 212 -14 88 -31 194 -40 235 -46 235 -58 478 -29 618 42
206 239 603 382 772 26 30 99 109 162 175 94 98 124 137 158 206 54 107 68
193 52 309 -26 190 -115 349 -334 598 -86 98 -126 151 -126 167 0 77 71 355
91 355 18 0 208 -64 368 -123 l164 -61 102 -101 c55 -55 121 -127 147 -160
200 -263 350 -600 493 -1107 15 -54 31 -98 36 -98 5 0 7 6 4 13 -2 6 -27 91
-56 187 -168 570 -345 912 -607 1167 -89 88 -92 93 -66 94 22 0 17 4 -21 13
-27 7 -129 42 -225 79 -96 36 -203 73 -237 83 -34 9 -62 20 -61 23 2 22 -7 33
-43 51 -23 12 -43 19 -46 16 -3 -2 13 -14 36 -26 47 -23 51 -30 19 -29 -13 0
-55 -3 -95 -7 -131 -12 -392 29 -517 81 -53 23 -38 30 21 10 58 -20 180 -30
256 -21 52 7 116 40 103 54 -3 3 -14 -2 -24 -11 -27 -24 -126 -40 -203 -33
-138 12 -250 66 -264 126 l-6 25 123 1 c81 1 200 12 348 34 197 28 242 32 365
27 150 -6 177 -12 336 -77 104 -43 168 -60 242 -66 26 -2 68 -12 92 -23 130
-57 368 -264 508 -441 66 -83 99 -109 47 -36 -90 125 -276 307 -421 411 -102
73 -141 93 -201 101 -44 6 -48 9 -48 33 0 14 7 175 15 356 8 182 15 336 15
343 0 7 -4 11 -8 8 -5 -3 -15 -168 -22 -367 l-13 -361 -43 6 c-24 3 -102 28
-174 56 -71 28 -153 56 -182 62 -91 22 -312 14 -503 -17 -190 -30 -485 -47
-485 -26 0 6 39 88 86 182 47 94 83 174 80 177 -16 16 -340 -689 -444 -969
-79 -210 -96 -285 -95 -419 1 -208 48 -320 278 -665 77 -115 157 -242 177
-281 40 -75 98 -238 98 -273 0 -12 4 -21 10 -21 23 0 -30 171 -90 290 -22 43
-106 177 -186 297 -212 316 -262 429 -271 614 -7 122 5 199 49 334 55 166 272
683 298 709 7 7 10 0 10 -18 0 -17 11 -38 28 -56 16 -15 36 -39 45 -53 13 -20
40 -34 112 -56 52 -17 105 -31 116 -31 24 0 24 2 -16 -105 -94 -249 -68 -489
81 -741 158 -270 164 -341 59 -704 -79 -270 -132 -416 -207 -564 -17 -33 -51
-106 -75 -161 l-43 -100 7 90 c5 50 8 158 8 240 -1 132 -4 156 -24 205 -32 78
-99 183 -202 315 -234 303 -305 448 -325 663 -6 58 -4 72 7 72 12 0 12 2 0 9
-20 13 -8 168 23 296 48 197 107 331 262 595 120 205 190 346 384 765 84 182
153 331 154 333 2 1 36 -11 76 -28 98 -41 215 -71 455 -120 245 -50 350 -79
463 -128 144 -63 240 -133 325 -239 111 -138 479 -731 483 -778 1 -16 9 -61
18 -100 26 -116 16 -195 -30 -242 -23 -23 -25 -23 -49 -7 -14 9 -28 14 -31 11
-7 -7 107 -77 126 -77 8 0 -2 11 -24 24 -30 18 -35 24 -22 29 10 4 26 28 38
54 17 40 20 60 15 132 -3 47 -12 106 -21 130 -19 51 -14 65 8 24 8 -15 15 -22
16 -14 1 30 -417 698 -511 817 -65 82 -142 147 -235 200 -133 75 -257 114
-574 179 -343 71 -480 117 -619 209 -148 98 -271 270 -271 378 0 27 6 64 14
83 27 64 36 62 212 -32 371 -198 475 -241 689 -281 61 -12 183 -35 273 -52
362 -68 542 -159 778 -394 119 -119 179 -194 345 -431 87 -126 241 -290 297
-319 46 -24 39 -6 -9 24 -59 36 -184 171 -259 279 -36 51 -105 148 -155 214
-49 66 -112 164 -140 217 -64 123 -132 218 -216 301 -110 108 -187 153 -453
260 -449 180 -569 242 -674 345 -75 75 -112 149 -120 240 -5 68 6 83 27 38 16
-35 63 -96 69 -90 3 3 -6 20 -20 38 -65 85 -87 185 -55 248 25 50 47 39 178
-92 173 -172 310 -265 509 -347 47 -20 87 -40 89 -46 1 -5 140 -69 309 -141
169 -71 326 -140 348 -152 55 -28 104 -87 155 -186 118 -226 334 -572 491
-786 84 -113 77 -104 83 -99 2 3 -25 45 -62 95 -158 214 -347 514 -483 767
-73 135 -112 185 -172 219 -24 14 -175 80 -335 148 -161 68 -293 129 -293 136
0 7 -24 20 -52 30 -138 45 -299 134 -433 239 -79 62 -196 175 -182 175 4 0 29
-11 55 -24 78 -39 256 -101 503 -175 258 -77 409 -127 572 -190 280 -107 347
-166 507 -446 86 -151 250 -398 353 -530 104 -136 235 -289 251 -294 6 -2 4 5
-5 15 -9 10 -52 62 -96 114 -177 210 -358 468 -493 705 -169 294 -220 338
-545 461 -77 29 -135 54 -130 54 31 1 378 -53 420 -65 56 -16 100 -45 137 -90
13 -16 172 -244 352 -505 180 -261 338 -484 350 -495 33 -29 105 -139 122
-188 30 -83 6 -184 -136 -572 -187 -509 -313 -807 -484 -1140 -197 -385 -313
-551 -409 -585 -20 -8 -37 -18 -37 -22 0 -10 45 8 87 33 83 52 191 217 370
565 168 329 316 675 486 1144 89 243 121 343 137 428 12 59 14 62 30 47 31
-28 85 -153 144 -331 31 -94 64 -180 72 -190 15 -18 15 -18 8 1 -4 11 -31 90
-60 175 -70 209 -96 271 -144 341 -22 33 -39 63 -36 67 6 10 -38 97 -102 200
-77 126 -77 116 9 547 46 233 73 394 73 435 0 84 -26 142 -97 218 -49 51 -56
65 -71 132 -9 41 -32 111 -50 155 -124 294 -151 361 -190 478 -51 150 -118
396 -111 407 3 5 -2 26 -10 49 -30 87 -46 195 -46 320 0 151 9 217 66 511 50
256 73 432 59 437 -5 2 -8 34 -6 74 8 138 -27 324 -113 609 -71 233 -93 334
-120 532 -41 306 -78 407 -240 648 -176 264 -237 414 -300 740 -9 47 -21 109
-27 139 -6 31 -13 49 -18 42 -4 -7 -20 25 -39 81 -43 125 -100 241 -152 311
-46 62 -171 170 -404 347 -82 63 -292 225 -466 362 -174 136 -354 274 -400
308 -98 70 -246 148 -339 179 -149 48 -185 52 -645 61 -414 9 -795 32 -970 60
-33 6 -62 9 -65 9 -3 -1 -41 -5 -85 -10z m-775 -2494 c-22 -222 -32 -525 -28
-877 l4 -375 -41 8 c-22 5 -56 8 -77 9 l-36 0 -7 105 c-9 123 8 445 30 590 8
55 29 156 45 225 34 139 111 412 116 407 2 -2 -1 -43 -6 -92z m-200 -1270 c0
-14 5 -25 10 -25 6 0 10 12 10 26 0 25 1 26 53 19 109 -14 206 -38 342 -83
l140 -47 -63 -3 c-35 -2 -144 8 -242 23 -212 30 -412 33 -582 9 -129 -18 -364
-76 -518 -128 -57 -20 -100 -32 -95 -27 15 15 239 114 335 149 217 79 360 110
513 111 l97 1 0 -25z m18 -179 c3 -115 30 -326 43 -340 12 -13 11 -7 -6 89 -8
44 -18 142 -21 217 l-7 137 44 -5 c24 -3 58 -7 75 -10 l31 -4 7 -113 c7 -116
31 -242 64 -338 l20 -56 -127 5 c-114 4 -128 6 -143 26 -26 32 -104 213 -150
350 -44 130 -45 132 -53 124 -9 -8 92 -282 145 -395 26 -56 45 -104 42 -107
-3 -3 -23 -6 -44 -6 -58 0 -175 -29 -245 -61 -41 -18 -63 -24 -64 -16 -5 46
-10 83 -23 157 -14 75 -56 379 -56 400 0 20 210 48 365 48 l100 0 3 -102z
m260 69 c23 -4 42 -7 43 -8 0 -1 4 -74 9 -162 7 -149 36 -353 47 -341 3 3 -2
52 -11 108 -12 77 -37 382 -32 395 1 1 39 -3 86 -8 47 -6 106 -8 132 -4 33 4
50 1 61 -9 8 -8 17 -13 19 -10 3 2 8 -60 11 -138 7 -156 33 -331 70 -475 l24
-92 -51 45 c-54 48 -250 150 -347 179 l-55 17 -27 87 c-38 118 -56 228 -57
339 0 84 2 93 18 88 9 -2 36 -8 60 -11z m-729 -125 c7 -58 24 -171 37 -253 26
-161 30 -217 13 -217 -5 0 -29 41 -51 90 -23 50 -46 90 -53 90 -19 0 -153 345
-139 359 10 10 169 48 175 42 3 -3 12 -53 18 -111z m-225 46 c-7 -18 56 -335
97 -486 36 -132 38 -144 24 -149 -21 -8 -240 554 -233 600 2 16 14 26 43 35
56 17 75 17 69 0z m150 -342 c25 -53 59 -118 75 -144 l29 -48 -51 -42 -51 -41
-14 38 c-31 90 -123 503 -122 551 1 9 20 -36 44 -100 24 -64 65 -160 90 -214z
m-420 144 c23 -156 72 -355 130 -533 28 -83 46 -157 46 -184 0 -114 61 -357
117 -464 8 -16 12 -31 9 -34 -16 -16 -165 407 -226 642 -60 232 -131 659 -115
685 15 24 23 2 39 -112z m252 -163 c31 -82 72 -185 91 -227 l35 -77 -22 -35
c-24 -39 -89 -98 -101 -91 -4 3 -7 20 -7 37 0 18 -10 87 -21 153 -26 153 -61
408 -60 437 0 26 -1 30 85 -197z m1034 -93 c36 -13 117 -48 180 -79 94 -45
127 -68 181 -122 54 -54 169 -207 169 -225 0 -2 -46 42 -102 98 -135 135 -247
200 -427 248 -100 26 -313 35 -427 18 -81 -12 -212 -63 -228 -89 -17 -27 -33
-6 -49 60 -6 24 -2 28 51 52 55 25 145 51 207 60 17 3 109 4 205 3 153 -1 183
-5 240 -24z m-710 -117 c0 -5 -5 -3 -10 5 -5 8 -10 20 -10 25 0 6 5 3 10 -5 5
-8 10 -19 10 -25z m-11 -20 l23 -44 -53 -66 -53 -66 -22 50 c-39 87 -39 84 18
129 29 23 55 42 58 42 3 0 16 -20 29 -45z m-118 -130 c15 -36 24 -67 20 -69
-10 -7 -73 123 -65 135 9 15 14 7 45 -66z m-24 -28 c31 -62 31 -63 12 -87 -11
-15 -19 -41 -19 -64 0 -45 25 -148 47 -189 27 -52 7 -38 -30 20 -19 32 -67 97
-106 145 -39 48 -71 93 -71 100 1 7 18 25 40 40 22 15 50 43 62 63 13 19 25
35 28 35 3 0 19 -29 37 -63z m87 -104 c14 -29 24 -53 22 -53 -8 0 -56 86 -56
100 0 18 3 13 34 -47z m-376 -590 c23 -45 62 -116 86 -158 25 -41 43 -81 40
-88 -11 -31 99 -336 158 -437 12 -19 30 -51 41 -70 l20 -35 -31 29 c-17 15
-28 34 -26 40 3 7 -4 17 -16 22 -23 10 -179 221 -347 470 l-115 171 36 105
c20 58 36 116 36 131 0 62 13 57 45 -20 17 -43 50 -115 73 -160z m450 138 c59
-78 143 -145 237 -191 129 -62 188 -74 360 -74 145 1 196 9 320 49 12 4 9 0
-6 -9 -45 -26 -220 -67 -316 -73 -277 -18 -515 103 -626 318 -21 41 -32 66
-25 55 7 -10 32 -44 56 -75z m-249 -171 c11 -24 11 -24 -3 -6 -9 11 -16 24
-16 30 0 12 5 7 19 -24z m-56 -796 c34 -26 88 -59 121 -75 54 -26 61 -33 105
-111 66 -118 136 -216 241 -338 49 -58 107 -127 129 -155 61 -80 259 -266 338
-318 40 -27 75 -53 79 -58 13 -22 280 -192 428 -273 219 -120 575 -284 654
-301 24 -5 51 1 105 21 237 91 781 367 1065 541 57 35 105 63 107 63 2 0 -3
-16 -11 -35 -11 -28 -14 -114 -14 -487 0 -249 5 -511 10 -583 11 -150 9 -156
-67 -198 -157 -85 -329 -128 -618 -153 -489 -43 -1040 22 -1525 178 l-125 40
0 322 c0 327 -6 410 -46 651 -26 157 -49 255 -58 255 -5 0 -2 -26 5 -57 62
-258 88 -517 88 -856 1 -351 16 -321 -171 -332 -116 -7 -430 7 -465 20 -7 3
-25 36 -40 73 -14 37 -72 177 -128 311 -214 517 -283 753 -330 1119 -24 185
-41 581 -33 758 l6 125 44 -50 c24 -27 71 -71 106 -97z"/>
<path d="M2624 6440 c67 -265 156 -818 156 -970 0 -11 3 -20 8 -20 9 0 7 31
-14 225 -27 260 -120 755 -146 780 -7 7 -9 2 -4 -15z"/>
<path d="M2730 6382 c0 -8 9 -48 19 -90 26 -100 48 -236 57 -340 4 -45 9 -80
12 -77 8 7 4 79 -9 180 -17 137 -77 386 -79 327z"/>
<path d="M2945 5865 c3 -148 12 -293 29 -445 37 -326 51 -589 39 -735 -5 -66
-8 -122 -6 -124 12 -16 17 35 21 212 4 205 -2 303 -48 737 -12 107 -25 281
-30 385 l-8 190 3 -220z"/>
<path d="M3063 6060 c51 -225 170 -916 221 -1290 32 -227 46 -304 46 -241 0
35 -77 564 -115 794 -36 210 -36 214 -31 442 3 143 2 211 -4 180 -4 -27 -9
-113 -9 -189 -1 -77 -3 -137 -5 -135 -2 2 -23 103 -46 224 -23 121 -46 225
-52 230 -7 7 -9 2 -5 -15z"/>
<path d="M3385 5295 c3 -431 14 -690 35 -830 11 -72 6 80 -11 320 -6 83 -14
335 -19 560 l-8 410 3 -460z"/>
<path d="M3555 5085 c0 -236 1 -332 2 -212 2 120 2 314 0 430 -1 117 -2 19 -2
-218z"/>
<path d="M5110 12475 c0 -8 159 -109 219 -140 166 -83 335 -130 620 -170 236
-34 351 -64 469 -121 78 -37 110 -61 174 -124 43 -44 78 -74 78 -68 0 25 -148
155 -218 191 -136 72 -233 97 -542 142 -329 49 -525 117 -732 257 -56 37 -68
43 -68 33z"/>
<path d="M3618 12195 c-3 -44 -24 -147 -47 -230 -52 -192 -80 -358 -86 -510
-4 -118 -4 -119 6 -35 26 237 44 349 81 490 58 225 59 231 56 301 l-3 64 -7
-80z"/>
<path d="M2874 12156 c-76 -52 -142 -114 -204 -191 -57 -72 -147 -232 -136
-242 7 -8 5 -11 40 62 39 82 90 157 154 227 48 51 146 132 191 157 9 5 13 12
10 15 -3 3 -27 -10 -55 -28z"/>
<path d="M4316 11809 c-44 -5 -105 -13 -135 -20 -74 -14 -271 -79 -271 -89 0
-4 44 8 98 26 150 51 232 65 422 72 130 4 162 8 125 13 -64 9 -139 9 -239 -2z"/>
<path d="M5294 11630 c3 -25 17 -135 31 -245 60 -473 137 -810 250 -1089 106
-262 183 -346 615 -670 168 -126 311 -234 319 -240 11 -8 13 -8 10 1 -2 6
-141 115 -309 241 -354 266 -429 333 -506 448 -168 252 -297 731 -375 1389
-12 105 -26 195 -31 200 -6 6 -7 -7 -4 -35z"/>
<path d="M4110 11445 c-417 -79 -963 -494 -1284 -975 -35 -52 -108 -174 -161
-270 -173 -310 -212 -353 -506 -556 -110 -76 -248 -176 -307 -223 -135 -108
-411 -377 -419 -409 -3 -13 7 -74 22 -134 15 -63 29 -154 32 -210 3 -54 10
-98 14 -98 19 0 -4 195 -37 328 -30 122 -36 108 90 234 189 190 353 324 631
514 174 119 284 216 350 309 24 33 86 139 140 235 53 96 122 213 153 259 317
478 848 888 1266 977 155 33 336 15 457 -47 34 -16 63 -28 66 -25 8 7 -105 62
-167 80 -77 24 -247 29 -340 11z"/>
<path d="M4640 11308 c67 -101 108 -245 145 -503 14 -99 32 -219 41 -267 15
-83 15 -93 -5 -205 -42 -242 -61 -531 -61 -929 0 -127 -3 -401 -7 -610 -7
-374 -7 -378 -20 -269 -29 251 -63 643 -74 840 -17 311 1 772 37 950 4 20 3
27 -4 20 -6 -5 -19 -73 -29 -150 -15 -115 -18 -209 -18 -520 0 -409 5 -482 70
-1097 19 -180 35 -334 35 -343 0 -8 3 -15 8 -15 4 0 8 262 10 583 3 627 16
1135 32 1287 15 145 43 309 51 304 11 -6 55 -204 73 -324 29 -199 36 -367 42
-1075 8 -820 5 -879 -62 -1145 -4 -19 -3 -21 5 -10 5 8 17 44 26 80 9 36 21
73 27 84 22 41 130 647 182 1021 28 203 70 565 87 760 6 72 13 132 14 134 4 4
48 -21 162 -93 43 -27 125 -79 183 -115 192 -120 502 -363 725 -570 33 -30
184 -172 335 -316 396 -375 400 -379 405 -374 5 5 -586 568 -770 735 -290 262
-560 467 -807 612 -79 46 -152 93 -215 137 -13 9 -22 19 -22 23 3 18 -2 26
-10 14 -11 -19 -148 92 -212 172 -83 104 -168 289 -155 336 3 11 9 29 12 40 3
11 1 20 -5 20 -6 0 -11 -10 -11 -22 -1 -19 -2 -20 -10 -7 -5 9 -23 115 -40
235 -33 233 -61 368 -92 449 -23 61 -79 155 -91 155 -5 0 1 -15 13 -32z m270
-1031 c0 -21 85 -140 142 -197 30 -31 82 -78 116 -105 l63 -48 -6 -56 c-3 -31
-15 -148 -26 -261 -25 -257 -61 -546 -100 -805 -36 -236 -117 -687 -126 -695
-3 -3 -2 13 2 35 11 56 7 1325 -5 1570 -10 194 -36 411 -64 527 -7 32 -9 55
-5 52 5 -3 9 -11 9 -17z"/>
<path d="M2172 11163 c12 -80 47 -228 68 -289 l18 -50 -91 -100 c-190 -209
-525 -629 -512 -642 3 -3 6 -3 8 -1 2 2 39 51 82 109 177 236 322 407 518 613
151 158 197 219 78 103 -39 -39 -73 -68 -76 -65 -8 9 -72 270 -80 327 -4 28
-10 52 -14 52 -5 0 -4 -26 1 -57z"/>
<path d="M7224 10568 c187 -514 308 -774 568 -1218 184 -315 269 -467 316
-569 63 -138 110 -259 117 -303 13 -86 17 -101 25 -88 5 8 17 -27 30 -86 26
-118 29 -128 35 -122 8 8 -22 141 -55 248 -33 110 -54 276 -71 580 -11 191 -7
535 8 655 5 42 3 48 -8 37 -11 -11 -14 -85 -14 -405 0 -353 8 -521 31 -677 3
-22 -16 12 -50 88 -72 161 -137 281 -319 592 -294 502 -409 743 -582 1228 -27
72 -52 132 -56 132 -5 0 7 -42 25 -92z"/>
<path d="M3807 10469 c-49 -118 -88 -269 -113 -432 -33 -217 -28 -978 7 -1011
8 -8 9 -2 4 24 -24 109 -27 720 -5 915 16 146 72 407 85 393 1 -1 -2 -50 -7
-108 -25 -257 -9 -1083 23 -1179 9 -27 8 3 -11 264 -23 315 -6 1022 27 1113
18 52 10 69 -10 21z"/>
<path d="M6646 10348 c16 -174 63 -318 146 -445 51 -78 163 -203 181 -203 6 0
-19 30 -55 68 -151 156 -241 355 -255 565 -3 48 -10 87 -15 87 -5 0 -6 -31 -2
-72z"/>
<path d="M3002 9980 c-1 -19 -14 -111 -28 -205 -21 -141 -27 -219 -31 -457 -3
-163 -2 -288 3 -288 5 0 8 66 6 147 -4 186 11 429 38 605 12 74 19 158 17 184
-3 38 -4 41 -5 14z"/>
<path d="M5526 9455 c36 -620 14 -862 -105 -1179 -89 -237 -266 -645 -276
-635 -1 2 5 47 16 101 43 221 60 556 43 806 -8 105 -20 123 -20 30 -1 -129
-93 -455 -193 -677 -28 -63 -49 -117 -46 -119 7 -7 80 153 126 276 41 108 109
351 109 390 0 12 5 22 12 22 8 0 10 -53 5 -207 -7 -217 -24 -384 -57 -556 -17
-86 -24 -105 -52 -134 -17 -18 -29 -35 -26 -38 2 -3 13 4 23 15 10 11 24 20
32 20 7 0 13 5 13 11 0 6 16 37 35 68 34 55 197 427 245 560 13 34 25 60 27
57 2 -2 -32 -193 -76 -424 -78 -404 -90 -476 -70 -422 14 41 169 861 168 889
-1 14 10 65 24 114 50 168 77 373 77 590 0 146 -19 460 -31 507 -6 23 -7 2 -3
-65z"/>
<path d="M2574 9423 c-9 -117 1 -481 15 -513 10 -21 11 -16 7 30 -12 130 -16
363 -9 463 5 59 5 107 2 107 -4 0 -10 -39 -15 -87z"/>
<path d="M1365 9338 c-79 -93 -171 -254 -200 -352 -8 -27 -15 -78 -15 -112 0
-53 4 -67 26 -94 16 -19 33 -29 41 -25 23 8 76 -30 138 -97 30 -34 55 -57 55
-51 0 36 -174 184 -198 169 -18 -11 -45 35 -50 83 -10 109 91 330 219 475 22
25 36 46 31 46 -6 0 -27 -19 -47 -42z"/>
<path d="M5257 9100 c-4 -151 -10 -295 -12 -320 -4 -32 -3 -39 4 -24 12 28 31
312 30 453 -2 228 -16 161 -22 -109z"/>
<path d="M6021 9223 c-1 -7 10 -81 24 -165 33 -206 69 -477 99 -747 23 -202
36 -277 36 -210 0 30 -44 421 -66 579 -49 366 -90 604 -93 543z"/>
<path d="M2020 9104 c0 -204 -24 -376 -128 -924 -66 -345 -83 -497 -82 -727
l2 -185 -119 -136 c-65 -75 -174 -195 -243 -267 -82 -85 -146 -162 -184 -222
-32 -51 -62 -93 -66 -93 -4 0 -12 11 -18 25 -6 13 -43 46 -82 72 -114 75 -133
139 -84 276 14 39 34 98 44 129 10 32 45 108 78 170 33 62 97 194 142 293 45
99 85 182 88 185 2 3 2 -40 -1 -95 -4 -65 -20 -156 -46 -260 -65 -266 -123
-580 -120 -657 1 -29 2 -28 10 12 4 25 19 117 33 205 15 88 42 228 62 310 65
275 75 329 79 438 2 83 9 122 28 175 59 158 83 264 93 405 5 73 3 99 -8 122
-14 27 -15 23 -11 -66 14 -261 -95 -553 -476 -1276 -36 -69 -66 -141 -76 -185
-9 -40 -36 -221 -59 -403 -47 -360 -47 -367 10 -373 21 -2 36 4 51 20 12 13
78 122 148 243 188 325 243 405 365 530 99 103 369 406 540 609 151 179 280
352 280 377 0 7 -22 -20 -50 -60 -66 -96 -127 -174 -213 -275 -40 -46 -95
-111 -123 -144 l-52 -61 -6 31 c-9 47 -7 241 4 363 16 165 36 292 96 600 73
378 92 507 106 723 9 140 9 185 0 194 -9 9 -12 -14 -12 -98z m-1006 -2145
c-17 -41 -28 -90 -31 -134 -6 -93 12 -125 106 -188 45 -30 78 -61 87 -80 15
-32 15 -32 -95 -222 -145 -250 -148 -254 -177 -267 -20 -9 -28 -9 -41 4 -14
15 -12 44 26 345 23 180 50 362 61 403 16 69 78 215 86 207 2 -2 -8 -33 -22
-68z"/>
<path d="M5356 9088 c12 -194 -23 -519 -80 -745 -24 -93 -27 -134 -7 -81 16
42 60 251 77 360 20 134 32 568 15 568 -9 0 -10 -27 -5 -102z"/>
<path d="M5661 9126 c0 -21 6 -86 15 -145 36 -248 134 -578 277 -931 223 -550
268 -665 302 -765 42 -119 42 -121 50 -113 8 7 -71 222 -167 458 -317 779
-394 1009 -442 1320 -33 218 -33 219 -35 176z"/>
<path d="M1716 8949 c-5 -15 -54 -526 -83 -859 -22 -251 -25 -954 -5 -985 11
-17 11 -7 5 60 -13 138 -6 619 12 850 9 121 32 382 50 580 31 324 35 397 21
354z"/>
<path d="M6584 8545 c3 -11 30 -105 61 -210 178 -604 375 -1403 476 -1925 20
-102 38 -165 39 -133 0 19 -89 449 -141 678 -131 576 -398 1568 -431 1600 -7
7 -8 4 -4 -10z"/>
<path d="M1325 8448 c-40 -22 -65 -52 -65 -77 1 -25 1 -25 14 5 8 17 24 39 37
48 33 23 104 21 129 -4 24 -24 31 -25 23 -5 -14 37 -96 57 -138 33z"/>
<path d="M710 8445 c0 -3 18 -25 41 -48 75 -78 121 -206 135 -375 4 -45 11
-85 16 -88 5 -3 6 24 2 63 -16 174 -54 297 -115 376 -31 41 -79 84 -79 72z"/>
<path d="M7157 8333 c206 -203 355 -406 612 -837 291 -487 413 -787 462 -1136
6 -47 15 -195 19 -330 l8 -245 -3 275 c-3 285 -11 366 -55 535 -63 239 -172
484 -357 805 -190 327 -360 584 -501 754 -83 99 -259 276 -275 276 -5 0 35
-44 90 -97z"/>
<path d="M1448 8333 c-7 -88 -42 -160 -90 -184 -49 -25 -44 -36 6 -15 30 13
42 27 67 80 31 66 51 176 32 176 -6 0 -13 -26 -15 -57z"/>
<path d="M7514 8313 c162 -216 378 -534 686 -1008 341 -524 415 -674 500
-1009 71 -280 99 -592 80 -888 -5 -94 -8 -173 -6 -176 14 -13 21 104 21 348
-1 207 -5 306 -18 400 -47 337 -138 617 -285 885 -149 271 -972 1495 -1005
1495 -5 0 7 -21 27 -47z"/>
<path d="M788 8258 c2 -26 -9 -91 -27 -162 -35 -135 -38 -204 -12 -261 18 -40
61 -87 61 -68 0 6 -7 16 -16 24 -55 45 -62 151 -21 299 25 89 36 210 19 210
-4 0 -6 -19 -4 -42z"/>
<path d="M5627 8068 c-9 -12 -23 -52 -32 -88 -37 -142 -129 -335 -224 -465
-28 -38 -48 -71 -46 -74 6 -6 22 14 87 111 29 42 53 76 55 74 1 -1 -15 -62
-36 -134 -21 -73 -36 -132 -32 -132 4 0 33 84 64 188 31 103 73 230 95 282 21
52 47 124 56 160 10 36 23 71 29 78 5 7 7 15 4 18 -3 3 -12 -5 -20 -18z"/>
<path d="M5700 7976 c0 -42 -73 -205 -157 -352 -52 -91 -93 -168 -90 -171 6
-5 98 149 169 282 l48 90 0 -122 c0 -68 4 -123 9 -123 26 0 66 253 53 330 -7
38 -9 27 -15 -75 -9 -174 -23 -209 -29 -75 -3 67 0 118 7 140 21 63 26 90 15
90 -5 0 -10 -7 -10 -14z"/>
<path d="M1484 7697 c-1 -268 -23 -449 -89 -722 -5 -20 -4 -27 3 -20 13 13 48
166 73 325 23 137 39 594 23 623 -5 9 -9 -73 -10 -206z"/>
<path d="M2355 7911 c-11 -5 -33 -23 -50 -41 -21 -23 -24 -30 -10 -22 11 5 29
20 39 31 24 26 85 28 115 3 36 -28 29 -70 -27 -185 -57 -114 -79 -140 -137
-161 -30 -11 -34 -15 -17 -15 57 -2 107 49 169 174 60 119 65 171 20 199 -30
19 -78 27 -102 17z"/>
<path d="M7092 7782 c-2 -172 19 -387 57 -582 35 -178 90 -380 103 -380 6 0 7
7 4 16 -20 53 -60 209 -86 334 -39 192 -59 367 -69 580 l-8 175 -1 -143z"/>
<path d="M7400 7010 c0 -378 3 -569 10 -565 6 4 10 203 10 565 0 362 -4 561
-10 565 -7 4 -10 -187 -10 -565z"/>
<path d="M2324 7188 c3 -13 8 -61 11 -108 10 -144 44 -435 76 -655 35 -243
106 -632 119 -654 14 -25 12 -3 -15 128 -38 186 -92 523 -119 746 -24 186 -56
505 -56 547 0 10 -5 18 -10 18 -6 0 -8 -10 -6 -22z"/>
<path d="M377 7133 c-28 -55 -108 -285 -207 -595 -5 -16 -6 -28 -1 -28 4 0 44
116 90 258 46 141 101 295 122 341 47 102 44 120 -4 24z"/>
<path d="M4880 6797 c0 -55 4 -87 11 -87 7 0 8 26 3 83 -3 45 -8 84 -10 86 -2
2 -4 -35 -4 -82z"/>
<path d="M7262 6780 c53 -154 124 -381 148 -475 38 -145 39 -149 46 -142 15
14 -162 598 -188 622 -8 7 -9 5 -6 -5z"/>
<path d="M2010 5989 c0 -404 3 -608 10 -604 14 9 14 1215 0 1215 -7 0 -10
-210 -10 -611z"/>
<path d="M180 6165 c-16 -56 -8 -251 10 -268 10 -9 11 -7 7 13 -15 65 -19 179
-7 234 14 70 8 84 -10 21z"/>
<path d="M2216 6099 c-3 -19 -14 -227 -26 -464 -11 -236 -23 -466 -26 -510 -4
-51 -3 -76 3 -70 5 6 22 248 37 539 24 477 27 603 12 505z"/>
<path d="M491 5963 c-13 -67 -15 -262 -2 -282 6 -9 7 24 4 85 -3 62 1 128 9
177 16 88 7 106 -11 20z"/>
<path d="M4500 6010 c0 -5 7 -10 15 -10 8 0 15 5 15 10 0 6 -7 10 -15 10 -8 0
-15 -4 -15 -10z"/>
<path d="M4762 5934 c-61 -16 -112 -41 -112 -54 0 -5 16 -12 35 -16 54 -10
346 1 379 15 39 16 28 23 -15 10 -48 -14 -252 -22 -324 -12 l-60 9 65 22 c90
31 207 38 294 18 38 -9 71 -14 74 -11 5 5 -5 9 -63 24 -56 15 -210 12 -273 -5z"/>
<path d="M899 5838 c-18 -34 -23 -65 -27 -150 -5 -112 2 -178 19 -178 6 0 7 5
3 11 -3 6 -6 67 -5 136 1 102 5 134 21 171 26 59 18 67 -11 10z"/>
<path d="M6527 5670 c3 -91 7 -167 9 -169 8 -8 2 235 -6 284 -5 31 -6 -12 -3
-115z"/>
<path d="M4674 5771 c9 -14 73 -31 111 -30 24 1 20 4 -20 14 -27 6 -61 15 -74
20 -16 5 -21 4 -17 -4z"/>
<path d="M1364 5713 c2 -10 14 -54 27 -98 76 -278 147 -409 332 -610 176 -190
240 -296 263 -438 l14 -82 -4 70 c-7 136 -73 252 -251 445 -182 198 -256 328
-330 583 -19 65 -35 125 -35 133 0 8 -5 14 -11 14 -6 0 -8 -8 -5 -17z"/>
<path d="M6446 5660 c4 -41 8 -77 10 -79 9 -10 3 126 -6 139 -7 10 -8 -9 -4
-60z"/>
<path d="M6710 5622 c0 -61 21 -195 32 -207 7 -7 8 0 4 20 -3 17 -11 73 -17
125 -12 104 -19 126 -19 62z"/>
<path d="M6100 5464 c0 -15 62 -93 92 -116 31 -24 111 -68 123 -68 18 0 -1 18
-30 29 -50 18 -127 82 -150 124 -17 32 -35 48 -35 31z"/>
<path d="M2215 4575 c0 -374 1 -526 2 -337 2 189 2 495 0 680 -1 185 -2 31 -2
-343z"/>
<path d="M6163 5126 c3 -7 17 -89 32 -182 37 -238 37 -240 42 -226 10 27 -55
422 -70 422 -5 0 -7 -6 -4 -14z"/>
<path d="M156 5008 c-87 -152 -100 -187 -104 -286 -5 -100 12 -194 50 -281 17
-40 20 -66 19 -196 -2 -185 -12 -243 -62 -369 -22 -54 -37 -101 -34 -104 7 -7
6 -9 48 98 53 137 60 178 61 347 l0 151 56 -86 c31 -48 98 -143 148 -211 126
-168 185 -270 383 -664 94 -187 173 -337 175 -334 7 7 -333 682 -395 786 -28
46 -88 134 -133 195 -211 283 -278 410 -301 567 -19 133 -1 198 102 382 18 32
31 60 28 63 -2 3 -21 -23 -41 -58z"/>
<path d="M6304 5053 c2 -10 10 -57 16 -105 7 -49 17 -88 22 -88 6 0 8 6 5 13
-2 7 -10 54 -17 105 -7 50 -17 92 -22 92 -5 0 -7 -8 -4 -17z"/>
<path d="M2733 5017 c9 -25 386 -1303 402 -1367 10 -36 23 -112 30 -170 12
-100 13 -102 14 -40 0 36 -8 106 -18 155 -25 122 -414 1435 -425 1435 -4 0 -6
-6 -3 -13z"/>
<path d="M1441 4757 c345 -344 469 -752 340 -1121 -54 -155 -141 -262 -362
-453 -94 -80 -168 -147 -165 -150 9 -9 343 286 392 346 151 186 199 333 191
581 -4 118 -9 162 -31 235 -35 120 -109 271 -186 377 -61 85 -253 288 -273
288 -5 0 37 -47 94 -103z"/>
<path d="M6751 4803 c-1 -29 -12 -80 -25 -115 -28 -75 -148 -316 -240 -482
-37 -66 -65 -124 -63 -129 4 -13 141 237 241 443 90 184 118 272 98 313 -9 19
-11 14 -11 -30z"/>
<path d="M6905 4833 c5 -10 28 -76 53 -148 41 -117 46 -141 50 -241 5 -129 -8
-182 -64 -266 -42 -62 -38 -77 5 -18 58 81 75 142 75 270 0 102 -4 126 -33
212 -35 107 -77 208 -87 208 -3 0 -3 -8 1 -17z"/>
<path d="M1710 4810 c0 -5 7 -10 15 -10 8 0 30 -31 50 -71 37 -72 105 -263
105 -293 0 -9 5 -16 10 -16 31 0 -105 355 -147 388 -20 15 -33 16 -33 2z"/>
<path d="M2350 4300 c0 -340 3 -520 10 -520 7 0 10 180 10 520 0 340 -3 520
-10 520 -7 0 -10 -180 -10 -520z"/>
<path d="M2680 3855 c0 -243 4 -375 10 -375 6 0 10 132 10 375 0 243 -4 375
-10 375 -6 0 -10 -132 -10 -375z"/>
<path d="M1582 4129 c-4 -178 -58 -387 -157 -611 -75 -168 -153 -280 -245
-350 -19 -15 -32 -30 -28 -33 12 -13 149 129 193 200 92 146 195 412 229 585
11 57 16 121 13 190 l-3 105 -2 -86z"/>
<path d="M1985 3999 c4 -13 2 -25 -5 -29 -9 -6 -8 -15 4 -38 12 -22 16 -59 16
-130 0 -187 -48 -374 -150 -589 -76 -160 -128 -246 -335 -553 -212 -314 -279
-426 -366 -603 -105 -215 -166 -422 -205 -687 -34 -238 -28 -1305 8 -1360 6
-10 8 3 4 40 -29 277 -32 1032 -6 1260 30 257 104 517 213 744 83 172 156 291
350 575 362 529 468 769 503 1136 l7 70 34 -100 c49 -144 66 -258 60 -385 -10
-199 -67 -350 -262 -696 -69 -123 -146 -268 -171 -321 -198 -425 -323 -913
-403 -1573 -28 -226 -73 -721 -67 -728 10 -9 14 21 31 223 80 968 215 1579
463 2095 28 58 94 182 147 275 113 198 161 293 200 390 108 273 106 487 -10
800 -18 50 -36 116 -40 148 -3 31 -11 57 -16 57 -6 0 -7 -9 -4 -21z"/>
<path d="M9171 3913 c6 -15 172 -153 184 -152 11 0 -37 43 -129 116 -32 26
-57 42 -55 36z"/>
<path d="M6002 3788 c-87 -299 -139 -638 -122 -789 12 -100 36 -166 125 -334
41 -78 88 -182 104 -231 17 -49 30 -79 30 -66 1 42 -40 144 -130 321 -109 214
-124 270 -115 441 7 147 34 308 92 538 46 184 55 256 16 120z"/>
<path d="M6607 3703 c-41 -81 -62 -168 -61 -263 0 -105 7 -133 104 -462 72
-241 69 -232 76 -225 3 3 -24 103 -60 224 -103 346 -109 373 -104 488 4 81 11
115 36 179 31 80 36 113 9 59z"/>
<path d="M8740 3717 c0 -4 11 -24 25 -45 25 -38 47 -124 38 -148 -2 -6 0 -15
6 -19 16 -10 14 64 -4 116 -14 40 -64 115 -65 96z"/>
<path d="M1006 3474 c-32 -216 -58 -306 -176 -609 -128 -331 -182 -519 -179
-634 1 -37 4 -29 15 44 29 183 60 284 203 654 40 100 84 229 100 285 29 103
59 282 48 292 -3 3 -8 -11 -11 -32z"/>
<path d="M9053 3428 c13 -18 29 -48 35 -66 23 -67 36 -263 36 -552 1 -276 0
-299 -20 -352 -11 -32 -18 -58 -13 -58 4 0 15 21 25 48 34 91 29 707 -7 886
-11 53 -51 126 -70 126 -5 0 1 -15 14 -32z"/>
<path d="M7451 3388 c-1 -10 9 -88 20 -175 28 -207 31 -516 7 -648 -38 -199
-84 -303 -295 -655 -209 -350 -314 -568 -397 -828 -81 -252 -110 -434 -111
-687 0 -170 2 -198 23 -262 12 -40 27 -75 34 -79 8 -5 9 -2 3 12 -44 108 -59
257 -45 443 34 463 168 834 498 1381 210 348 265 468 303 665 21 108 19 474
-5 660 -18 139 -34 218 -35 173z"/>
<path d="M2563 3316 c10 -25 56 -240 81 -376 58 -317 86 -634 86 -976 0 -344
-24 -603 -74 -805 l-24 -94 -1 110 c-1 140 -15 279 -51 535 -66 462 -89 862
-71 1257 6 139 14 274 18 298 3 27 2 45 -4 45 -14 0 -22 -130 -29 -475 -9
-424 10 -710 78 -1165 30 -198 32 -235 33 -467 0 -139 2 -253 5 -253 3 0 10
19 17 43 6 23 24 94 41 157 103 391 101 1149 -4 1760 -34 198 -85 420 -97 420
-5 0 -7 -6 -4 -14z"/>
<path d="M3380 3171 c0 -6 7 -11 15 -11 26 0 96 -39 185 -105 159 -116 350
-230 373 -222 7 2 -17 19 -53 37 -90 46 -210 121 -310 195 -111 82 -210 132
-210 106z"/>
<path d="M26 3123 c96 -144 201 -362 261 -537 66 -194 83 -277 83 -406 0 -251
-39 -405 -233 -930 -74 -200 -87 -232 -117 -277 -12 -18 -18 -33 -13 -33 20 0
67 100 142 303 196 527 227 646 235 910 4 120 2 137 -29 255 -39 152 -89 290
-156 431 -58 122 -168 311 -182 311 -5 0 -1 -12 9 -27z"/>
<path d="M3187 3110 c-3 -8 -15 -51 -27 -95 -21 -80 -101 -261 -140 -314 -22
-31 -26 -46 -10 -36 15 9 75 116 109 193 34 78 83 241 77 256 -2 6 -6 4 -9 -4z"/>
<path d="M193 2980 c3 -8 45 -107 95 -221 201 -459 269 -658 279 -822 3 -48
10 -90 16 -94 15 -9 0 148 -23 243 -10 43 -36 129 -57 189 -48 135 -279 677
-300 702 -10 12 -13 13 -10 3z"/>
<path d="M5999 2914 c70 -80 181 -326 251 -558 38 -126 60 -176 45 -106 -25
120 -134 413 -206 551 -40 77 -102 159 -121 159 -5 0 9 -21 31 -46z"/>
<path d="M2024 2837 c31 -132 40 -206 40 -337 1 -117 -3 -156 -18 -200 -34
-98 -82 -182 -195 -340 -173 -242 -254 -427 -304 -689 -20 -110 -21 -144 -22
-648 0 -320 3 -533 9 -533 6 0 7 164 3 418 -9 528 4 718 63 931 50 177 121
315 279 535 165 231 204 330 203 521 0 115 -34 342 -54 360 -7 7 -9 2 -4 -18z"/>
<path d="M8475 2790 c21 -22 41 -37 44 -35 6 7 -60 75 -73 75 -6 0 7 -18 29
-40z"/>
<path d="M8690 2490 c0 -12 81 -59 122 -70 18 -5 81 -16 141 -24 103 -15 195
-45 216 -70 20 -24 -139 -495 -275 -816 -84 -198 -261 -556 -359 -729 -42 -73
-74 -135 -72 -138 6 -5 54 74 135 222 205 376 373 764 514 1190 44 132 82 242
84 244 2 2 13 -16 24 -40 12 -27 20 -36 20 -24 0 11 -9 35 -21 54 -18 30 -19
40 -10 77 13 52 13 57 2 50 -5 -3 -12 -22 -15 -41 -4 -19 -9 -35 -12 -35 -2 0
-26 11 -52 24 -48 24 -113 40 -216 51 -79 9 -146 30 -190 60 -20 13 -36 20
-36 15z"/>
<path d="M3136 2402 c5 -5 29 -16 54 -25 25 -9 81 -37 124 -62 81 -46 111 -54
57 -16 -62 44 -274 136 -235 103z"/>
<path d="M8440 2300 c0 -8 18 -125 40 -262 40 -245 63 -336 100 -380 22 -28
23 -26 38 89 6 46 25 124 42 174 17 51 29 94 26 96 -12 12 -72 -192 -92 -312
l-7 -40 -24 52 c-17 37 -37 129 -68 319 -38 232 -55 313 -55 264z"/>
<path d="M7843 2086 c-79 -160 -148 -253 -374 -511 -76 -87 -131 -186 -153
-280 -26 -105 -46 -266 -52 -415 -6 -140 -5 -147 18 -189 32 -60 82 -85 173
-88 l70 -2 -69 10 c-88 12 -130 32 -158 78 -20 32 -23 48 -22 146 1 127 28
358 55 462 32 126 67 179 267 405 46 51 111 133 144 182 64 96 141 242 136
257 -2 6 -18 -19 -35 -55z"/>
<path d="M8090 2060 c-16 -60 -64 -161 -139 -295 -70 -126 -114 -233 -131
-320 -15 -82 -40 -699 -30 -761 5 -27 13 -62 20 -79 17 -44 300 -505 311 -505
4 0 -28 60 -73 133 -188 306 -217 355 -233 402 -15 44 -16 78 -10 280 8 306
22 496 40 575 17 68 75 195 169 365 57 102 101 215 93 238 -2 6 -10 -8 -17
-33z"/>
<path d="M1850 1862 c0 -4 15 -37 34 -72 89 -168 162 -409 192 -633 32 -238
18 -592 -34 -877 l-17 -95 -6 480 c-5 452 -6 484 -27 558 -41 148 -140 294
-231 341 -51 27 -46 13 9 -23 95 -62 167 -176 213 -336 22 -79 22 -87 20 -618
-1 -295 1 -537 5 -537 4 0 13 30 19 68 6 37 23 132 36 212 96 549 43 1050
-152 1438 -47 94 -61 115 -61 94z"/>
<path d="M580 1789 c0 -6 -7 -84 -16 -173 -21 -211 -15 -510 14 -641 41 -191
123 -391 268 -662 31 -58 58 -102 61 -100 2 3 -36 83 -86 178 -203 392 -255
585 -255 934 0 167 16 406 30 458 3 9 1 17 -5 17 -6 0 -11 -5 -11 -11z"/>
<path d="M8034 1755 c4 -27 25 -219 47 -425 33 -310 45 -389 67 -455 28 -82
210 -435 225 -435 4 0 -20 51 -53 112 -102 187 -158 310 -174 377 -8 35 -34
242 -57 460 -23 218 -46 401 -52 406 -6 6 -7 -8 -3 -40z"/>
<path d="M9186 1792 c-12 -20 -137 -367 -200 -556 -117 -350 -281 -917 -272
-940 5 -15 7 -10 70 227 95 351 235 788 362 1126 30 79 52 146 50 148 -2 3 -7
0 -10 -5z"/>
<path d="M5916 1509 c-61 -81 -119 -203 -147 -309 -19 -69 -23 -111 -22 -225
0 -229 47 -358 209 -575 103 -138 190 -266 230 -337 16 -29 33 -53 37 -53 21
0 -105 198 -242 380 -170 226 -221 360 -221 582 0 212 52 375 172 536 22 30
38 56 35 58 -2 3 -26 -23 -51 -57z"/>
<path d="M1726 1529 c-10 -43 -36 -242 -52 -394 -29 -283 -31 -1115 -2 -1115
7 0 8 16 4 42 -3 24 -9 165 -12 313 -9 364 11 713 62 1058 8 60 13 111 10 114
-3 3 -7 -5 -10 -18z"/>
<path d="M3341 1467 c14 -12 73 -61 132 -109 128 -105 214 -206 267 -313 64
-128 72 -191 74 -555 1 -334 -2 -360 -48 -425 l-21 -30 -6 260 c-5 214 -9 276
-27 352 -25 111 -70 222 -123 304 -44 68 -136 169 -153 169 -6 0 21 -33 59
-73 107 -111 176 -257 211 -447 20 -110 31 -424 16 -470 -6 -20 -7 -54 -3 -80
l7 -45 35 37 c60 61 64 91 64 468 0 371 -4 398 -69 535 -58 122 -156 230 -352
388 -67 54 -118 81 -63 34z"/>
<path d="M4657 1265 c-4 -44 -24 -129 -52 -214 -24 -77 -54 -191 -65 -253 -23
-133 -100 -669 -100 -700 0 -60 14 18 55 305 56 397 75 495 126 654 23 70 44
160 48 198 l7 70 58 -175 c98 -297 175 -642 207 -932 7 -60 16 -108 21 -108 4
0 6 17 3 38 -3 20 -12 91 -21 157 -38 294 -125 656 -225 937 -40 113 -54 118
-62 23z"/>
<path d="M7590 1218 c-49 -70 -100 -199 -100 -253 0 -58 90 -69 151 -18 30 26
64 81 55 90 -2 3 -11 -8 -19 -24 -28 -53 -63 -77 -115 -77 l-47 -1 1 57 c1 66
43 163 105 245 22 29 35 53 30 53 -6 0 -33 -32 -61 -72z"/>
<path d="M3460 727 c0 -5 23 -34 51 -65 95 -107 138 -244 109 -348 -7 -25 -32
-72 -55 -103 -56 -76 -65 -94 -64 -128 1 -29 3 -25 13 18 3 14 26 52 51 84 63
82 78 127 74 222 -3 64 -10 91 -36 144 -29 58 -141 197 -143 176z"/>
</g>
</svg>
